<svg width="95" height="80" viewBox="0 0 95 80" fill="none" xmlns="http://www.w3.org/2000/svg">
<path d="M61.3025 43.7126L59.7011 43.3014L54.4209 42.003L62.1248 40.7911L61.6704 42.4358C61.6756 42.5223 61.6756 42.609 61.6704 42.6955L61.3025 43.7126Z" fill="#D32E42"/>
<path d="M40.8956 48.2138C39.8323 45.3229 38.017 42.7681 35.637 40.8128L37.0219 39.1465C39.6973 41.3487 41.7367 44.2247 42.9297 47.478L40.8956 48.2138Z" fill="#D32E42"/>
<path d="M59.1167 43.5179L59.5711 41.8516C60.0217 40.334 60.2548 38.7603 60.2636 37.1773C60.2576 33.7868 59.2487 30.4738 57.3638 27.6555L57.0176 27.1145L57.3205 26.5519C59.7228 21.745 63.0207 17.4409 67.037 13.8707C74.5246 7.76808 84.4791 4.97648 89.9109 5.60405C90.6087 5.60948 91.2982 5.75608 91.9379 6.03501C92.5776 6.31394 93.1542 6.71943 93.633 7.22708C96.3813 10.7544 93.633 24.4095 83.8949 32.503C77.1783 37.9109 69.2584 41.6222 60.8046 43.3231L59.1167 43.5179ZM59.5279 27.0063C61.4204 30.0615 62.4245 33.5834 62.4277 37.1773C62.422 38.3838 62.2988 39.5869 62.0598 40.7696C69.5251 38.9943 76.5074 35.5955 82.5099 30.815C92.01 22.938 93.5681 10.6679 91.9234 8.5255C91.9234 8.37401 91.3391 7.91957 89.7594 7.7248C85.4313 7.27036 75.9745 9.36947 68.5086 15.537C64.8359 18.776 61.7915 22.664 59.5279 27.0063Z" fill="#D32E42"/>
<path d="M55.5678 79.3109C50.5106 79.3269 45.6482 77.362 42.0219 73.837C38.3956 70.312 36.2937 65.5072 36.1664 60.4516C36.0391 55.396 37.8965 50.4915 41.3408 46.7885C44.785 43.0854 49.5424 40.8783 54.594 40.6397H54.8969C56.6976 40.5264 58.5045 40.7166 60.2421 41.2023L60.8697 41.3538C65.3624 42.6295 69.2419 45.4874 71.7923 49.3999C74.3426 53.3124 75.3915 58.0154 74.7454 62.6408C74.0994 67.2662 71.8019 71.5018 68.2771 74.5657C64.7523 77.6297 60.2381 79.3151 55.5678 79.3109ZM55.5678 42.7604H54.6805C50.3861 42.9916 46.3355 44.8288 43.3326 47.9075C40.3297 50.9862 38.5939 55.0813 38.4698 59.3802C38.3457 63.679 39.8423 67.8675 42.6626 71.1143C45.4829 74.3611 49.4207 76.4289 53.6947 76.9075C57.9686 77.386 62.2663 76.2403 65.7348 73.6976C69.2034 71.155 71.5892 67.4013 72.4189 63.1814C73.2487 58.9615 72.4616 54.584 70.214 50.9174C67.9663 47.2508 64.4223 44.5632 60.2854 43.388L59.7011 43.2581C58.349 42.9232 56.9608 42.756 55.5678 42.7604Z" fill="#D32E42"/>
<path d="M21.4195 37.2205L21.0949 37.0474C16.3645 34.519 12.0509 31.2784 8.30543 27.4391C-0.4589 18.2419 -1.54092 4.37047 1.61857 1.27591C2.14639 0.816548 2.7616 0.468581 3.42725 0.252895C4.0929 0.0372099 4.79526 -0.0417447 5.49219 0.0207703C11.0321 0.0207703 20.6404 3.91603 27.2407 10.9491C30.0446 14.0678 32.3379 17.61 34.0358 21.4447L34.4253 22.2887L33.6462 22.808C31.4577 24.2583 29.6337 26.1944 28.3161 28.4653C26.9986 30.7362 26.2233 33.2807 26.0505 35.9004V36.9175H24.9036C23.9232 36.9226 22.9454 37.0168 21.9821 37.1988L21.4195 37.2205ZM5.40563 2.1848C3.80424 2.1848 3.24159 2.57433 3.24159 2.70417C1.33725 4.63016 1.44545 17.0084 9.97173 25.9459C13.4158 29.518 17.3769 32.5527 21.7224 34.9482C22.4366 34.9482 23.129 34.7751 23.8865 34.7318C24.2035 32.1129 25.0593 29.588 26.4001 27.3162C27.7409 25.0443 29.5376 23.0746 31.677 21.5312C30.1444 18.2139 28.1159 15.1492 25.661 12.4423C18.9957 5.43085 9.84189 2.22808 5.49219 2.1848H5.40563Z" fill="#D32E42"/>
<path d="M24.752 73.4247C19.9026 73.4361 15.2258 71.626 11.6478 68.3527C8.06973 65.0794 5.85147 60.5818 5.43231 55.7505C5.01315 50.9193 6.42366 46.1068 9.38448 42.2662C12.3453 38.4256 16.6405 35.837 21.4194 35.0131C22.5201 34.8214 23.6347 34.7201 24.752 34.7102C29.2368 34.698 33.582 36.269 37.0221 39.1464C39.6974 41.3486 41.7368 44.2247 42.9299 47.4779L43.1463 48.0839L42.7135 48.56C40.647 50.8762 39.2493 53.7108 38.6699 56.7603C38.0905 59.8098 38.3512 62.9595 39.4241 65.8722L39.6405 66.4781L39.2294 66.9542C37.405 68.9878 35.1732 70.6148 32.679 71.7296C30.1848 72.8443 27.484 73.4219 24.752 73.4247ZM24.752 36.8958C23.7582 36.8982 22.7664 36.9851 21.7873 37.1555C19.1065 37.6183 16.5738 38.711 14.3978 40.3438C12.2218 41.9766 10.4646 44.1027 9.27071 46.5472C8.07687 48.9918 7.48054 51.6848 7.53079 54.4048C7.58104 57.1249 8.27643 59.7941 9.55974 62.1928C10.8431 64.5916 12.6776 66.6514 14.9125 68.2027C17.1473 69.7539 19.7186 70.7524 22.4147 71.1158C25.1107 71.4793 27.8546 71.1974 30.4205 70.2933C32.9863 69.3892 35.3008 67.8888 37.1735 65.9155C36.1636 62.8212 35.9535 59.5216 36.5627 56.3242C37.1719 53.1267 38.5807 50.1356 40.6576 47.6294C39.5741 44.9767 37.849 42.6344 35.6371 40.8127C34.6834 40.0169 33.6458 39.3276 32.5425 38.7569C30.1684 37.5285 27.5333 36.8902 24.8602 36.8958H24.752Z" fill="#D32E42"/>
<path d="M41.5016 49.9234L40.8957 48.2138C39.3763 44.1371 36.4004 40.768 32.5425 38.757C30.1684 37.5286 27.5333 36.8902 24.8602 36.8959H23.6917V35.749C23.9894 31.7279 25.536 27.9004 28.1154 24.8014C30.6947 21.7023 34.1779 19.4866 38.0781 18.4639C41.9782 17.4412 46.1005 17.6626 49.8686 19.0971C53.6368 20.5317 56.8626 23.1078 59.0952 26.4653C61.2224 29.6721 62.352 33.4372 62.3413 37.2854C62.3447 39.01 62.1192 40.7274 61.6704 42.3925L61.4756 43.0417L59.9175 43.3014H59.7011C58.1946 42.8845 56.6315 42.7092 55.0701 42.7821H54.6806C52.403 42.896 50.1711 43.4639 48.1161 44.4524C46.061 45.441 44.2242 46.8301 42.7135 48.5384L41.5016 49.9234ZM26.0504 34.7751C28.6596 34.9474 31.2067 35.6467 33.538 36.831C34.7807 37.4728 35.9491 38.2493 37.0221 39.1465C39.2564 40.9856 41.0528 43.2995 42.2807 45.9199C45.6134 42.7314 49.9868 40.856 54.594 40.6397H54.897C56.5409 40.5405 58.1902 40.6937 59.7877 41.0941C60.0926 39.8104 60.2523 38.4966 60.2638 37.1772C60.2966 32.8063 58.6624 28.5872 55.6939 25.3788C52.7253 22.1704 48.6456 20.214 44.2853 19.9078C39.9249 19.6017 35.6119 20.9689 32.2241 23.731C28.8364 26.4931 26.6287 30.4425 26.0504 34.7751Z" fill="#D32E42"/>
<path d="M35.637 40.8129C34.6834 40.0171 33.6457 39.3277 32.5425 38.757L33.5379 36.8311C34.7806 37.4729 35.949 38.2494 37.022 39.1466L35.637 40.8129Z" fill="#D32E42"/>
<path d="M64.7001 57.3893L60.675 55.0737L55.8925 55.3767L58.2296 51.2867L57.9699 46.5691L62.0816 48.8846L66.7775 48.6466L64.4404 52.7366L64.7001 57.3893ZM61.1078 52.8664L62.3196 53.5589V52.1739L63.0121 50.9621H61.6055L60.4153 50.2912V51.6762L59.7228 52.8881L61.1078 52.8664Z" fill="#D32E42"/>
<path d="M14.7541 54.9438L15.0138 50.2478L12.6766 46.1362L17.3726 46.3959L21.4842 44.0587L21.2246 48.7547L23.5617 52.8663L18.8441 52.6066L14.7541 54.9438ZM16.507 48.4517L17.1995 49.6636V51.0485L18.3897 50.356H19.7747L19.1038 49.1658V47.7592L17.892 48.4517H16.507Z" fill="#D32E42"/>
<path d="M50.8502 33.0656L46.7602 30.7501L42.0642 30.9882L44.4014 26.8981L44.1417 22.1805L48.2317 24.5177L52.9493 24.2797L50.6121 28.3697L50.8502 33.0656ZM47.2795 28.5428L48.4914 29.2353V27.8503L49.1622 26.6384H47.7773L46.587 25.9676V27.3526L45.8945 28.5644L47.2795 28.5428Z" fill="#D32E42"/>
</svg>
