<svg width="59" height="58" viewBox="0 0 59 58" fill="none" xmlns="http://www.w3.org/2000/svg">
<path d="M47.061 23.5724H46.4956C45.9323 23.5373 45.3732 23.4532 44.8245 23.3211C42.5338 22.7102 40.4666 21.4543 38.8691 19.7026C37.3562 18.1458 36.2813 16.217 35.7531 14.1115C35.4929 13.0433 35.4164 11.9386 35.527 10.8447C35.6801 9.25594 36.3925 7.77316 37.5372 6.66083C38.2393 6.03096 39.0632 5.55204 39.958 5.25378C40.8528 4.95552 41.7993 4.84428 42.7389 4.92696C44.8381 5.09972 46.8459 5.86189 48.531 7.12571C49.2248 7.62332 49.8686 8.18718 50.4533 8.80932C50.7511 9.13398 51.0321 9.47366 51.2951 9.82703C53.0923 12.0001 53.9912 14.7778 53.808 17.5918C53.6643 19.2003 52.9462 20.7034 51.7852 21.8259C50.4908 22.9893 48.8008 23.6141 47.061 23.5724ZM42.2237 6.17082C40.8034 6.14171 39.4281 6.6693 38.3916 7.64084C37.4562 8.54161 36.8801 9.75175 36.7708 11.0458C36.6835 11.974 36.7644 12.9104 37.0095 13.8099C37.4873 15.6961 38.4437 17.4272 39.7863 18.8356C41.2249 20.4007 43.0756 21.5286 45.1261 22.0898C45.5995 22.2084 46.0835 22.28 46.571 22.3034C47.339 22.3811 48.1147 22.2972 48.8483 22.057C49.5819 21.8168 50.257 21.4257 50.8303 20.9087C51.7775 19.9945 52.3583 18.7658 52.4636 17.4536C52.6333 14.97 51.8467 12.5156 50.2649 10.5935C50.0518 10.2711 49.8211 9.9607 49.5738 9.66369C49.0306 9.09945 48.433 8.59022 47.7897 8.14341C46.2953 7.01967 44.5141 6.34031 42.6509 6.18338L42.2237 6.17082Z" fill="#3C4DC1"/>
<path d="M53.3432 31.8397C51.9551 31.7723 50.6007 31.3887 49.3835 30.718C48.1662 30.0473 47.1183 29.1073 46.3198 27.9699C45.1504 26.4525 44.4476 24.6278 44.297 22.718V21.8511L45.1388 22.0647C45.6122 22.1833 46.0962 22.2549 46.5837 22.2783C47.3478 22.3576 48.1201 22.2768 48.8513 22.041C49.5825 21.8052 50.2565 21.4196 50.8304 20.9088C51.7776 19.9945 52.3584 18.7658 52.4637 17.4536L52.5643 16.549L53.3809 16.9636C54.7828 17.6812 55.9997 18.7132 56.9366 19.979C58.2443 21.6726 58.9673 23.7447 58.9972 25.8842C59.0262 26.8217 58.8356 27.753 58.4408 28.6037C58.0459 29.4545 57.4577 30.2012 56.723 30.7843C55.8226 31.4393 54.7453 31.8072 53.6322 31.8397H53.3432ZM45.6665 23.4593C45.9061 24.8314 46.4752 26.1249 47.3249 27.2286C48.0308 28.247 48.9684 29.0834 50.0605 29.6687C51.1527 30.2541 52.3682 30.5719 53.6071 30.5958C54.4697 30.5756 55.3062 30.2953 56.0069 29.7917C56.5881 29.3251 57.0513 28.7282 57.359 28.0494C57.6668 27.3706 57.8105 26.6289 57.7784 25.8842C57.7504 24.0201 57.1152 22.2159 55.9692 20.7454C55.3196 19.8702 54.5198 19.1172 53.6071 18.5215C53.3271 19.7889 52.6752 20.9438 51.735 21.8385C51.023 22.4759 50.1862 22.9581 49.2777 23.2545C48.3691 23.5508 47.4089 23.6548 46.458 23.5598C46.1878 23.547 45.919 23.5134 45.6539 23.4593H45.6665Z" fill="#3C4DC1"/>
<path d="M37.198 14.8276L36.1929 14.5638C34.7834 14.212 33.4644 13.5654 32.3231 12.6666C29.1318 10.1537 27.7999 6.15828 29.1569 3.2308C29.328 2.84165 29.5521 2.47803 29.8228 2.15027C32.1095 -0.752081 37.0096 -0.701824 40.6281 2.21309C41.7045 3.03949 42.6093 4.06805 43.2917 5.24109L43.8571 6.24623H42.7137C41.936 6.16573 41.1499 6.24817 40.4058 6.48829C39.6616 6.72841 38.9757 7.12094 38.3916 7.64086C37.4562 8.54163 36.8802 9.75177 36.7708 11.0458C36.6835 11.974 36.7644 12.9104 37.0096 13.8099L37.198 14.8276ZM34.6852 1.24564C33.9624 1.21279 33.2416 1.34508 32.5776 1.63245C31.9136 1.91982 31.3238 2.35472 30.8531 2.90413C30.6467 3.15505 30.4774 3.43432 30.3505 3.73337C29.2323 6.13315 30.4133 9.47525 33.1649 11.6614C33.896 12.246 34.7143 12.7123 35.5898 13.0435C35.502 12.3132 35.502 11.575 35.5898 10.8448C35.7429 9.25596 36.4553 7.77318 37.6001 6.66085C38.7066 5.64826 40.1242 5.04136 41.6207 4.93954C41.1311 4.2883 40.5612 3.70151 39.9245 3.19311C38.4299 1.9686 36.5667 1.28264 34.6349 1.24564H34.6852Z" fill="#3C4DC1"/>
<path d="M27.0838 57.0688C23.4089 57.0562 19.7747 56.2985 16.401 54.8414C13.0273 53.3843 9.98421 51.2581 7.45566 48.5913C4.92711 45.9246 2.96568 42.7727 1.68999 39.3264C0.414287 35.88 -0.14918 32.2106 0.0336582 28.5403C0.216496 24.8699 1.14184 21.2747 2.75374 17.9722C4.36563 14.6696 6.63059 11.7283 9.41165 9.32607C12.1927 6.92383 15.4321 5.11058 18.9339 3.99598C22.4357 2.88137 26.1272 2.48856 29.7852 2.84131L30.6647 2.92926L30.3003 3.73337C29.1821 6.13315 30.3631 9.47525 33.1147 11.6614C34.1111 12.4603 35.2682 13.0346 36.507 13.3451L36.8714 13.4456L36.9594 13.8099C37.4371 15.6962 38.3935 17.4272 39.7361 18.8356C41.1747 20.4007 43.0255 21.5286 45.0759 22.0898L45.5157 22.1903V22.6552C45.6465 24.3179 46.2576 25.9068 47.2746 27.2286C47.9805 28.247 48.9181 29.0834 50.0102 29.6687C51.1024 30.2541 52.3179 30.5719 53.5568 30.5958H54.2478V31.2869C53.9022 38.2522 50.8873 44.8168 45.829 49.6178C40.7707 54.4187 34.0577 57.087 27.0838 57.0688ZM27.0838 3.97209C22.0341 3.9713 17.0938 5.44414 12.8689 8.21001C8.644 10.9759 5.31803 14.9146 3.29887 19.5431C1.27971 24.1716 0.655122 29.2887 1.50169 34.267C2.34826 39.2453 4.6292 43.8683 8.0648 47.5692C11.5004 51.2701 15.9413 53.888 20.843 55.1019C25.7447 56.3157 30.8941 56.0728 35.6597 54.4029C40.4254 52.7329 44.6001 49.7086 47.6721 45.7007C50.744 41.6928 52.5796 36.8756 52.9537 31.8397C51.633 31.7093 50.3559 31.2963 49.2091 30.6285C48.0622 29.9608 47.0725 29.0541 46.3072 27.9699C45.2336 26.5745 44.5525 24.9174 44.3346 23.1703C42.2204 22.5124 40.3176 21.3074 38.8189 19.6775C37.4149 18.2069 36.3888 16.4177 35.8286 14.4633C34.5552 14.096 33.3648 13.4859 32.3231 12.6666C29.471 10.3296 28.0513 6.83675 28.8554 4.02235C28.2774 3.98466 27.6869 3.97209 27.109 3.97209H27.0838Z" fill="#3C4DC1"/>
<path d="M50.7424 11.0457L48.0914 8.38211L51.7224 3.95948C51.8659 3.78578 52.0438 3.64365 52.2449 3.54203C52.446 3.4404 52.6659 3.38148 52.8909 3.36896C53.1219 3.35799 53.3527 3.39472 53.5688 3.47687C53.785 3.55901 53.9819 3.6848 54.1473 3.8464L55.4038 5.10283C55.5667 5.27146 55.6915 5.4732 55.7695 5.69434C55.8476 5.91548 55.8771 6.15083 55.8561 6.38439C55.8384 6.6095 55.7759 6.8288 55.6724 7.02945C55.5688 7.2301 55.4262 7.40805 55.253 7.55287L50.7424 11.0457ZM49.7875 8.29416L50.8429 9.36213L54.4112 6.49747C54.4512 6.46822 54.4843 6.43056 54.5082 6.38715C54.532 6.34374 54.5461 6.29562 54.5494 6.24618C54.5478 6.14918 54.5122 6.05582 54.4489 5.98233L53.1925 4.72591C53.1229 4.65489 53.028 4.61424 52.9286 4.61283C52.8303 4.62526 52.7405 4.67468 52.6773 4.75103L49.7875 8.29416Z" fill="#3C4DC1"/>
</svg>
