<svg width="92" height="90" viewBox="0 0 92 90" fill="none" xmlns="http://www.w3.org/2000/svg">
<path d="M78.1389 16.8414C72.7024 16.8414 65.8279 15.3837 64.8431 14.1822L64.5476 13.867V13.3155C64.9219 11.9761 72.6433 6.69714 79.1238 6.2047C83.2435 6.08201 87.3011 7.23052 90.7453 9.49418C90.9362 9.61798 91.0959 9.7842 91.212 9.97987C91.3281 10.1755 91.3974 10.3954 91.4146 10.6223C91.4318 10.8491 91.3963 11.0769 91.3109 11.2878C91.2256 11.4987 91.0927 11.6871 90.9226 11.8382C87.8774 14.5651 84.0682 16.2909 80.0102 16.7823C79.4192 16.8217 78.7889 16.8414 78.1389 16.8414ZM66.5174 13.4337C70.8314 14.8299 75.3632 15.4306 79.892 15.2065C83.6118 14.7401 87.1017 13.1531 89.8983 10.6563C86.7213 8.71981 83.0607 7.72272 79.3404 7.7805C74.6441 8.50729 70.2217 10.4569 66.5174 13.4337Z" fill="#FFA41D"/>
<path d="M26.2555 89.3087C19.9436 89.5515 13.6663 88.2677 7.95653 85.5661C3.26852 82.9858 0.648749 79.7948 0.077521 76.0719C-0.670985 70.1627 4.1746 64.5883 7.12923 61.7715C11.9157 57.182 13.1961 55.3895 16.978 36.1648C20.3069 19.3628 29.4071 9.43524 42.5848 8.21399H43.0181C52.5722 7.78599 61.9805 10.6739 69.6491 16.3885C73.4803 19.0921 76.7243 22.5436 79.1854 26.5349C81.6465 30.5262 83.2739 34.9746 83.9692 39.6118C85.1708 49.2636 81.704 59.4472 73.9235 69.1581C62.8141 82.9661 42.506 89.3087 26.2555 89.3087ZM18.0417 36.3617L19.0068 36.5587C15.3037 55.5865 13.9643 58.029 8.56715 63.1898C5.86859 65.7504 1.51544 70.8127 2.12606 75.8159C2.52001 78.869 4.80492 81.5675 8.90201 83.8327C22.4342 91.2784 57.0624 86.9646 72.5447 67.7793C79.9509 58.6002 83.2798 48.9287 82.1571 39.8088C81.4864 35.4371 79.9405 31.2456 77.6119 27.4854C75.2834 23.7251 72.22 20.4734 68.6052 17.9249C61.3581 12.4752 52.4529 9.69234 43.3924 10.0459L42.8802 10.2822C30.4314 11.4247 22.1781 20.5446 18.9871 36.6572L18.0417 36.3617Z" fill="#FFA41D"/>
<path d="M65.1778 15.4035L61.002 13.611L65.9263 6.10352e-05L71.5992 2.40316L65.1778 15.4035ZM62.9717 12.7641L64.4293 13.3747L69.4522 3.23045L66.8521 2.1077L62.9717 12.7641Z" fill="#FFA41D"/>
</svg>
