<svg width="83" height="93" viewBox="0 0 83 93" fill="none" xmlns="http://www.w3.org/2000/svg">
<path d="M48.995 18.1773C46.5333 18.3357 44.0701 17.8922 41.8183 16.8851C41.4954 16.6742 41.2408 16.3741 41.0855 16.0211C40.9302 15.6681 40.8809 15.2776 40.9436 14.8971C41.2816 11.3982 48.0209 4.04261 54.2234 1.59738C58.9872 -0.353717 64.2946 -0.523099 69.1731 1.12026C69.6119 1.27308 70.0147 1.51422 70.3566 1.82879C70.6985 2.14336 70.9723 2.52469 71.1611 2.94921C72.0955 5.55349 68.199 13.0681 60.6247 16.07C56.9071 17.4686 52.967 18.1826 48.995 18.1773ZM62.7519 1.99498C60.0866 1.98945 57.4436 2.48163 54.959 3.44621C48.4781 6.01073 42.4346 13.8037 43.031 15.2748C45.019 16.4477 53.289 16.8851 60.0283 14.2211C66.7676 11.5572 69.9683 5.03661 69.4316 3.60525C69.1746 3.2953 68.8377 3.06155 68.4574 2.92933C66.6436 2.24152 64.7104 1.92382 62.7718 1.99498H62.7519Z" fill="#E15D7D"/>
<path d="M40.6056 24.1412C40.0144 24.1401 39.4427 23.93 38.9916 23.548C38.5405 23.166 38.239 22.6367 38.1405 22.0538L35.3374 5.23539C35.2629 4.73261 35.3838 4.22041 35.6753 3.80404C35.9899 3.40534 36.4452 3.14215 36.9477 3.06848L39.4525 2.73052C39.955 2.69551 40.4521 2.85255 40.8432 3.1699C41.2344 3.48726 41.4905 3.94127 41.5598 4.4402L43.2894 21.3978C43.3623 22.043 43.1778 22.691 42.7758 23.201C42.3738 23.7109 41.7868 24.0417 41.1423 24.1213L40.8044 23.1671L40.9435 24.1611L40.6056 24.1412ZM39.5917 4.61911L37.2061 5.03659L40.1086 21.7159C40.1283 21.8497 40.1997 21.9705 40.3075 22.0523C40.4153 22.134 40.5509 22.1703 40.6851 22.1532H40.864C40.9977 22.1382 41.1202 22.0716 41.2056 21.9677C41.2909 21.8637 41.3324 21.7306 41.3212 21.5966L39.5917 4.61911Z" fill="#E15D7D"/>
<path d="M43.7863 92.3294C43.2694 92.3294 42.7327 92.3294 42.2158 92.3294C41.435 92.2698 40.6508 92.2698 39.87 92.3294C25.7353 93.2041 8.83737 81.6738 2.91315 67.1614C-4.0846 50.005 1.95891 29.7672 16.3918 22.0141C20.1887 19.9666 24.4451 18.9214 28.7586 18.977C33.072 19.0327 37.3 20.1874 41.0429 22.3321C44.7875 20.1905 49.0164 19.0392 53.3298 18.987C57.6432 18.9348 61.8987 19.9835 65.694 22.0339C80.1269 29.7871 86.1704 50.0249 79.1726 67.1813C73.4671 81.137 57.5631 92.3294 43.7863 92.3294ZM41.0429 90.3414H42.3351C55.436 91.1764 71.7972 80.0237 77.3437 66.4855C83.9637 50.2436 78.3178 31.1191 64.7597 23.843C61.1808 21.9003 57.1579 20.9227 53.0866 21.0064C49.0153 21.0901 45.0359 22.2321 41.5399 24.3201L41.0429 24.5984L40.5459 24.3201C37.0555 22.2236 33.0801 21.0699 29.0096 20.9724C24.939 20.8748 20.913 21.8366 17.3261 23.7635C3.76798 31.0395 -1.87792 50.1641 4.7421 66.406C10.2886 79.984 26.61 91.1366 39.7507 90.2619L41.0429 90.3414Z" fill="#E15D7D"/>
<path d="M49.0944 65.6505C48.9894 65.6714 48.8813 65.6714 48.7763 65.6505C48.6508 65.6123 48.5343 65.5492 48.4338 65.4648C48.3333 65.3805 48.2509 65.2768 48.1915 65.1598C48.1321 65.0428 48.0969 64.9151 48.0881 64.7842C48.0792 64.6533 48.0969 64.522 48.1401 64.3981C56.4102 39.9855 41.9376 26.6262 41.7984 26.6262C41.7033 26.537 41.6275 26.4292 41.5757 26.3095C41.5239 26.1898 41.4972 26.0608 41.4972 25.9304C41.4972 25.8 41.5239 25.671 41.5757 25.5513C41.6275 25.4316 41.7033 25.3238 41.7984 25.2346C41.8823 25.1353 41.9852 25.0537 42.1011 24.9948C42.217 24.9358 42.3436 24.9007 42.4732 24.8915C42.6029 24.8822 42.7332 24.899 42.8563 24.9408C42.9794 24.9827 43.0928 25.0488 43.19 25.1352C46.1405 28.0636 48.4551 31.5693 49.989 35.433C52.5535 41.556 54.6409 51.6948 50.1082 65.0939C50.0209 65.2828 49.8753 65.4388 49.6928 65.539C49.5104 65.6392 49.3006 65.6783 49.0944 65.6505Z" fill="#E15D7D"/>
</svg>
